<svg xmlns="http://www.w3.org/2000/svg" width="740" height="420" viewBox="0 0 740 420" role="img" aria-labelledby="title desc"><title id="title">الكربوهيدرات ومقاومة الإنسولين: اختيار النشويات وتنظيم الحصص</title><desc id="desc">اختاري النوع، نظّمي الحصة، وازني الوجبة</desc><rect width="740" height="420" rx="24" fill="#eef3ed"/><g transform="translate(38 23) scale(.85)" fill="none" stroke="#2d5240" stroke-width="3" stroke-linecap="round" stroke-linejoin="round"><path d="M32 57V9M32 24Q12 22 13 8q18 0 19 16ZM32 39Q12 37 13 23q18 0 19 16ZM32 31Q52 29 51 15q-18 0-19 16ZM32 47Q52 45 51 31q-18 0-19 16Z"/></g><text x="688" y="64" direction="rtl" text-anchor="start" font-family="Tajawal,Arial,sans-serif" font-size="32" font-weight="bold" fill="#213e31">ثلاث نقاط للتطبيق</text><g font-family="Tajawal,Arial,sans-serif"><rect x="26" y="110" width="688" height="80" rx="16" fill="white"/><circle cx="663" cy="150" r="24" fill="#2d5240"/><text x="663" y="160" text-anchor="middle" fill="white" font-size="28">١</text><text x="608" y="161" direction="rtl" text-anchor="start" fill="#213e31" font-size="32">اختاري النوع</text><rect x="26" y="208" width="688" height="80" rx="16" fill="white"/><circle cx="663" cy="248" r="24" fill="#2d5240"/><text x="663" y="258" text-anchor="middle" fill="white" font-size="28">٢</text><text x="608" y="259" direction="rtl" text-anchor="start" fill="#213e31" font-size="32">نظّمي الحصة</text><rect x="26" y="306" width="688" height="80" rx="16" fill="white"/><circle cx="663" cy="346" r="24" fill="#2d5240"/><text x="663" y="356" text-anchor="middle" fill="white" font-size="28">٣</text><text x="608" y="357" direction="rtl" text-anchor="start" fill="#213e31" font-size="32">وازني الوجبة</text></g></svg>